<svg xmlns="http://www.w3.org/2000/svg" xmlns:xlink="http://www.w3.org/1999/xlink" width="0" height="0" style="display:none;"><symbol viewBox="0 0 36.92426 37" id="mp-icon-jinyao-ma"><defs><style>.a{fill:url(#a);}</style><radialgradient id="a" cx="21.47998" cy="21.6519" r="18.36626" gradientunits="userSpaceOnUse"><stop offset="0" stop-color="#00f0fc"></stop><stop offset="1" stop-color="#4eabfc"></stop></radialgradient></defs><title>avatar.centered.light</title><path class="a" d="M20,24.65027a3.5,3.5,0,1,1,3,0v3.16882a6.5,6.5,0,1,0-3,0Z" transform="translate(-3 -3)"></path><path class="a" d="M20,30.87024v3.03137a11.48328,11.48328,0,0,0,3,0V30.87024a8.73473,8.73473,0,0,1-3,0Z" transform="translate(-3 -3)"></path><path class="a" d="M12,21.5a9.49686,9.49686,0,0,1,5-8.367V9.84851A12.47271,12.47271,0,0,0,14,31.478V35.0498a15.488,15.488,0,0,1,3-28.381V3.57428a18.47612,18.47612,0,0,0,0,35.85144V29.867A9.49686,9.49686,0,0,1,12,21.5Z" transform="translate(-3 -3)"></path><path class="a" d="M30.87024,20h9.054A18.49061,18.49061,0,0,0,21.5,3c-.50641,0-1.00391.03583-1.5.07574v3C20.494,6.02826,20.99359,6,21.5,6A15.49728,15.49728,0,0,1,36.326,17H33.14465A12.38859,12.38859,0,0,0,20,9.09839v3.03137A9.41851,9.41851,0,0,1,30.87024,20Z" transform="translate(-3 -3)"></path><path class="a" d="M36.92426,23H30.87183A9.5033,9.5033,0,0,1,26,29.867v3.28449A12.5225,12.5225,0,0,0,33.14685,26H36.326A15.49728,15.49728,0,0,1,21.5,37c-.50641,0-1.006-.02826-1.5-.07574v3c.49609.03991.99359.07574,1.5.07574A18.49066,18.49066,0,0,0,39.92426,23h-3Z" transform="translate(-3 -3)"></path></symbol><symbol viewBox="0 0 352 512" id="mp-icon-window-close"><!-- Font Awesome Pro 5.15.4 by @fontawesome - https://fontawesome.com License - https://fontawesome.com/license (Commercial License) --><path d="M242.72 256l100.07-100.07c12.28-12.28 12.28-32.19 0-44.48l-22.24-22.24c-12.28-12.28-32.19-12.28-44.48 0L176 189.28 75.93 89.21c-12.28-12.28-32.19-12.28-44.48 0L9.21 111.45c-12.28 12.28-12.28 32.19 0 44.48L109.28 256 9.21 356.07c-12.28 12.28-12.28 32.19 0 44.48l22.24 22.24c12.28 12.28 32.2 12.28 44.48 0L176 322.72l100.07 100.07c12.28 12.28 32.2 12.28 44.48 0l22.24-22.24c12.28-12.28 12.28-32.19 0-44.48L242.72 256z"></path></symbol><symbol viewBox="0 0 448 512" id="mp-icon-window-fullscreen"><!-- Font Awesome Pro 5.15.4 by @fontawesome - https://fontawesome.com License - https://fontawesome.com/license (Commercial License) --><path d="M0 180V56c0-13.3 10.7-24 24-24h124c6.6 0 12 5.4 12 12v40c0 6.6-5.4 12-12 12H64v84c0 6.6-5.4 12-12 12H12c-6.6 0-12-5.4-12-12zM288 44v40c0 6.6 5.4 12 12 12h84v84c0 6.6 5.4 12 12 12h40c6.6 0 12-5.4 12-12V56c0-13.3-10.7-24-24-24H300c-6.6 0-12 5.4-12 12zm148 276h-40c-6.6 0-12 5.4-12 12v84h-84c-6.6 0-12 5.4-12 12v40c0 6.6 5.4 12 12 12h124c13.3 0 24-10.7 24-24V332c0-6.6-5.4-12-12-12zM160 468v-40c0-6.6-5.4-12-12-12H64v-84c0-6.6-5.4-12-12-12H12c-6.6 0-12 5.4-12 12v124c0 13.3 10.7 24 24 24h124c6.6 0 12-5.4 12-12z"></path></symbol><symbol viewBox="0 0 512 512" id="mp-icon-window-maximize"><!-- Font Awesome Pro 5.15.4 by @fontawesome - https://fontawesome.com License - https://fontawesome.com/license (Commercial License) --><path d="M464 32H48C21.5 32 0 53.5 0 80v352c0 26.5 21.5 48 48 48h416c26.5 0 48-21.5 48-48V80c0-26.5-21.5-48-48-48zm-16 160H64v-84c0-6.6 5.4-12 12-12h360c6.6 0 12 5.4 12 12v84z"></path></symbol><symbol viewBox="0 0 512 512" id="mp-icon-window-minimize"><!-- Font Awesome Pro 5.15.4 by @fontawesome - https://fontawesome.com License - https://fontawesome.com/license (Commercial License) --><path d="M464 352H48c-26.5 0-48 21.5-48 48v32c0 26.5 21.5 48 48 48h416c26.5 0 48-21.5 48-48v-32c0-26.5-21.5-48-48-48z"></path></symbol><symbol viewBox="0 0 512 512" id="mp-icon-window-restore"><!-- Font Awesome Pro 5.15.4 by @fontawesome - https://fontawesome.com License - https://fontawesome.com/license (Commercial License) --><path d="M512 48v288c0 26.5-21.5 48-48 48h-48V176c0-44.1-35.9-80-80-80H128V48c0-26.5 21.5-48 48-48h288c26.5 0 48 21.5 48 48zM384 176v288c0 26.5-21.5 48-48 48H48c-26.5 0-48-21.5-48-48V176c0-26.5 21.5-48 48-48h288c26.5 0 48 21.5 48 48zm-68 28c0-6.6-5.4-12-12-12H76c-6.6 0-12 5.4-12 12v52h252v-52z"></path></symbol><symbol viewBox="0 0 448 512" id="mp-icon-window-unfullscreen"><!-- Font Awesome Pro 5.15.4 by @fontawesome - https://fontawesome.com License - https://fontawesome.com/license (Commercial License) --><path d="M436 192H312c-13.3 0-24-10.7-24-24V44c0-6.6 5.4-12 12-12h40c6.6 0 12 5.4 12 12v84h84c6.6 0 12 5.4 12 12v40c0 6.6-5.4 12-12 12zm-276-24V44c0-6.6-5.4-12-12-12h-40c-6.6 0-12 5.4-12 12v84H12c-6.6 0-12 5.4-12 12v40c0 6.6 5.4 12 12 12h124c13.3 0 24-10.7 24-24zm0 300V344c0-13.3-10.7-24-24-24H12c-6.6 0-12 5.4-12 12v40c0 6.6 5.4 12 12 12h84v84c0 6.6 5.4 12 12 12h40c6.6 0 12-5.4 12-12zm192 0v-84h84c6.6 0 12-5.4 12-12v-40c0-6.6-5.4-12-12-12H312c-13.3 0-24 10.7-24 24v124c0 6.6 5.4 12 12 12h40c6.6 0 12-5.4 12-12z"></path></symbol></svg>